<?xml version="1.0" encoding="iso-8859-1"?>
<!-- Generator: Adobe Illustrator 19.0.0, SVG Export Plug-In . SVG Version: 6.00 Build 0)  -->
<svg version="1.1" id="Capa_1" xmlns="http://www.w3.org/2000/svg" xmlns:xlink="http://www.w3.org/1999/xlink" x="0px" y="0px"
	 viewBox="0 0 512.001 512.001" style="enable-background:new 0 0 512.001 512.001;" xml:space="preserve">
<g>
	<path style="fill:#FFD2C0;" d="M383.247,252.519h-48.06c-14.269,0-25.836-11.567-25.836-25.836l0,0
		c0-14.269,11.567-25.836,25.836-25.836h48.06c14.269,0,25.836,11.567,25.836,25.836l0,0
		C409.081,240.952,397.515,252.519,383.247,252.519z"/>
	<path style="fill:#FFD2C0;" d="M176.815,252.519h-48.06c-14.269,0-25.836-11.567-25.836-25.836l0,0
		c0-14.269,11.567-25.836,25.836-25.836h48.06c14.269,0,25.836,11.567,25.836,25.836l0,0
		C202.65,240.952,191.083,252.519,176.815,252.519z"/>
</g>
<path style="fill:#FF5F5F;" d="M371.587,108.716c-10.573-35.884-28.321-66.699-49.973-86.772
	C293.029-4.555,274.126-0.858,267.328,1.962c-7.127,2.955-11.712,9.051-11.967,15.909c-0.251,6.759,3.674,12.849,10.501,16.295
	c2.131,1.075,3.162,1.921,3.629,2.392c-1.048,1.673-6.228,7.505-30.618,17.166c-41.174,16.311-65.879,47.703-79.352,71.167
	c-15.738,27.408-25.081,59.147-25.633,87.082c-0.04,2.019,0.733,3.968,2.147,5.41c1.414,1.442,3.348,2.255,5.366,2.255h228.976
	c3.553,0,6.62-2.488,7.354-5.965C384.396,182.054,382.215,144.779,371.587,108.716z"/>
<path style="fill:#E24B4B;" d="M371.587,108.716c-10.573-35.884-28.321-66.699-49.973-86.772
	C293.565-4.058,274.847-0.987,267.732,1.802c7.446,2.584,16.706,8.391,27.61,20.142c18.622,20.071,33.886,50.888,42.979,86.772
	c9.139,36.063,11.016,73.337,5.284,104.956c-0.63,3.477-3.269,5.965-6.325,5.965h33.097c3.553,0,6.62-2.488,7.354-5.965
	C384.396,182.054,382.215,144.779,371.587,108.716z"/>
<path style="fill:#4FA9ED;" d="M256,282.286c-110.66,0-200.689,90.029-200.689,200.69v21.51c0,4.15,3.365,7.515,7.515,7.515h386.35
	c4.15,0,7.515-3.365,7.515-7.515v-21.51C456.691,372.315,366.662,282.286,256,282.286z"/>
<path style="fill:#2782C7;" d="M256,282.286c90.979,0,164.996,90.029,164.996,200.69v21.51c0,4.15-2.767,7.515-6.178,7.515h34.358
	c4.15,0,7.515-3.365,7.515-7.515v-21.51C456.691,372.315,366.662,282.286,256,282.286z"/>
<path style="fill:#FFD2C0;" d="M357.715,246.141c0,0.527-0.008,1.063-0.034,1.582c-0.017,0.527-0.051,1.054-0.093,1.573
	c-0.034,0.442-0.076,0.885-0.127,1.319c-0.059,0.527-0.127,1.046-0.212,1.565c-0.034,0.247-0.076,0.493-0.119,0.731
	c-0.119,0.705-0.264,1.403-0.425,2.092c-0.051,0.247-0.11,0.485-0.178,0.731c-0.093,0.374-0.187,0.749-0.298,1.122
	c-0.136,0.485-0.281,0.961-0.442,1.429v0.026c-0.127,0.383-0.256,0.757-0.392,1.131c-0.017,0.043-0.034,0.085-0.051,0.136
	c-0.076,0.212-0.153,0.425-0.238,0.629c-0.119,0.315-0.246,0.629-0.375,0.944c-0.153,0.357-0.307,0.714-0.468,1.071
	c0,0.009-0.008,0.017-0.008,0.025c-0.093,0.204-0.178,0.4-0.281,0.595c-0.178,0.392-0.374,0.774-0.57,1.156
	c-0.195,0.383-0.4,0.766-0.612,1.148c-0.238,0.425-0.485,0.842-0.731,1.259c-0.008,0.008-0.017,0.017-0.017,0.025
	c-0.264,0.417-0.527,0.834-0.8,1.25c-0.808,1.233-1.692,2.424-2.653,3.555c-0.621,0.749-1.276,1.48-1.965,2.177
	c-0.009,0.009-0.017,0.017-0.026,0.026c-0.332,0.34-0.663,0.672-1.003,0.995c-0.009,0-0.026,0.017-0.034,0.026
	c-0.357,0.341-0.714,0.672-1.088,0.995c-0.366,0.324-0.74,0.646-1.122,0.953c-0.383,0.315-0.774,0.621-1.165,0.919
	c-0.391,0.298-0.791,0.587-1.19,0.868c-0.408,0.281-0.817,0.561-1.233,0.825c-0.417,0.273-0.834,0.527-1.268,0.783
	c-0.425,0.246-0.851,0.493-1.293,0.731c-0.434,0.238-0.876,0.459-1.319,0.68c-0.451,0.221-0.902,0.434-1.352,0.638
	c-0.91,0.408-1.837,0.783-2.79,1.114c-4.099,1.463-8.513,2.263-13.114,2.263H193.373c-4.601,0-9.015-0.8-13.114-2.263
	c-0.953-0.332-1.88-0.705-2.79-1.114c-0.451-0.204-0.902-0.417-1.352-0.638c-0.442-0.221-0.885-0.442-1.319-0.68
	c-0.442-0.238-0.868-0.485-1.293-0.731c-0.434-0.256-0.851-0.51-1.268-0.783c-0.417-0.264-0.825-0.544-1.233-0.825
	c-0.4-0.281-0.8-0.57-1.19-0.868c-0.391-0.298-0.783-0.604-1.165-0.919c-0.383-0.307-0.757-0.629-1.122-0.953
	c-0.374-0.324-0.731-0.655-1.088-0.995c-0.008-0.009-0.025-0.026-0.034-0.026c-0.341-0.332-0.672-0.663-1.004-0.995
	c-0.008-0.009-0.017-0.017-0.025-0.026c-0.689-0.697-1.344-1.429-1.965-2.177c-0.961-1.131-1.846-2.322-2.653-3.555
	c-0.273-0.417-0.536-0.834-0.8-1.25c0-0.008-0.008-0.017-0.017-0.025c-0.246-0.417-0.493-0.834-0.731-1.259
	c-0.212-0.383-0.417-0.766-0.612-1.148c-0.195-0.383-0.391-0.766-0.57-1.156c-0.102-0.195-0.187-0.391-0.281-0.595
	c0-0.008-0.008-0.017-0.008-0.025c-0.161-0.358-0.315-0.714-0.468-1.071c-0.127-0.315-0.256-0.629-0.375-0.944
	c-0.085-0.204-0.161-0.417-0.238-0.629c-0.017-0.051-0.034-0.093-0.051-0.136c-0.136-0.374-0.264-0.749-0.392-1.131v-0.026
	c-0.161-0.468-0.306-0.944-0.442-1.429c-0.11-0.374-0.204-0.748-0.298-1.122c-0.068-0.246-0.127-0.485-0.178-0.731
	c-0.161-0.689-0.307-1.386-0.425-2.092c-0.042-0.238-0.085-0.485-0.119-0.731c-0.085-0.519-0.153-1.038-0.212-1.565
	c-0.051-0.434-0.093-0.876-0.127-1.319c-0.042-0.519-0.076-1.046-0.093-1.573c-0.025-0.519-0.034-1.054-0.034-1.582
	c0-17.502,11.507-32.309,27.359-37.293v-17.069c23.005-5.324,48.093-8.249,74.355-8.249c26.261,0,51.351,2.926,74.355,8.249v17.069
	C346.208,213.832,357.715,228.638,357.715,246.141z"/>
<g>
	<path style="fill:#434259;" d="M297.613,226.184c-0.491,0-0.982-0.05-1.463-0.15c-0.481-0.09-0.952-0.24-1.403-0.431
		c-0.461-0.18-0.892-0.411-1.303-0.681c-0.411-0.281-0.792-0.591-1.142-0.942c-1.393-1.393-2.194-3.337-2.194-5.311
		c0-0.491,0.04-0.982,0.14-1.473c0.1-0.471,0.24-0.952,0.431-1.403c0.19-0.451,0.421-0.892,0.691-1.293
		c0.271-0.421,0.591-0.802,0.932-1.142c0.351-0.351,0.731-0.661,1.142-0.942c0.411-0.271,0.842-0.501,1.303-0.691
		c0.451-0.18,0.922-0.331,1.403-0.421c0.972-0.2,1.964-0.2,2.936,0c0.481,0.09,0.952,0.24,1.403,0.421
		c0.461,0.19,0.892,0.421,1.303,0.691c0.411,0.281,0.792,0.591,1.142,0.942c1.393,1.393,2.194,3.337,2.194,5.311
		s-0.802,3.918-2.194,5.311c-0.351,0.351-0.731,0.661-1.142,0.942c-0.411,0.271-0.842,0.501-1.303,0.681
		c-0.451,0.19-0.922,0.341-1.403,0.431C298.605,226.134,298.104,226.184,297.613,226.184z"/>
	<path style="fill:#434259;" d="M214.387,226.184c-0.491,0-0.992-0.05-1.473-0.15c-0.481-0.09-0.952-0.24-1.403-0.431
		c-0.461-0.18-0.892-0.421-1.303-0.691c-0.411-0.271-0.792-0.581-1.142-0.932c-1.393-1.393-2.194-3.337-2.194-5.311
		c0-0.491,0.04-0.982,0.14-1.473c0.1-0.481,0.24-0.952,0.431-1.403c0.19-0.451,0.421-0.892,0.691-1.293
		c0.271-0.421,0.591-0.802,0.932-1.142c0.351-0.351,0.731-0.661,1.142-0.942c0.411-0.271,0.842-0.501,1.303-0.691
		c0.451-0.18,0.922-0.331,1.403-0.421c0.972-0.2,1.964-0.2,2.936,0c0.481,0.09,0.952,0.24,1.403,0.421
		c0.461,0.19,0.892,0.421,1.303,0.691c0.411,0.281,0.792,0.591,1.142,0.942c0.351,0.341,0.661,0.721,0.932,1.142
		c0.271,0.401,0.501,0.842,0.691,1.293s0.331,0.922,0.431,1.403c0.1,0.491,0.15,0.982,0.15,1.473c0,1.974-0.802,3.918-2.204,5.311
		c-0.351,0.351-0.731,0.661-1.142,0.932c-0.411,0.271-0.842,0.511-1.303,0.691c-0.451,0.19-0.922,0.341-1.403,0.431
		C215.369,226.134,214.868,226.184,214.387,226.184z"/>
</g>
<path style="fill:#E1EEF7;" d="M255.999,368.606c-155.105,0-150.556-95.012-114.173-136.055v-28.363
	c12.349-4.958,25.692-9.134,39.819-12.408v17.069c-15.853,4.984-27.359,19.791-27.359,37.293c0,0.527,0.009,1.063,0.034,1.582
	c0.017,0.527,0.051,1.054,0.093,1.573c0.034,0.442,0.076,0.885,0.127,1.319c0.059,0.527,0.127,1.046,0.212,1.565
	c0.034,0.247,0.076,0.485,0.119,0.731c0.119,0.705,0.264,1.403,0.425,2.092c0.051,0.247,0.11,0.493,0.178,0.731
	c0.093,0.374,0.187,0.748,0.298,1.122c0.136,0.485,0.281,0.961,0.442,1.429v0.026c0.127,0.383,0.256,0.757,0.391,1.131
	c0.017,0.043,0.034,0.085,0.051,0.136c0.076,0.212,0.153,0.417,0.238,0.629c0.119,0.315,0.246,0.629,0.375,0.944
	c0.153,0.357,0.307,0.714,0.468,1.071c0,0.009,0.008,0.017,0.008,0.025c0.093,0.204,0.187,0.4,0.281,0.595
	c0.178,0.392,0.374,0.774,0.57,1.156c0.195,0.383,0.4,0.766,0.612,1.148c0.238,0.425,0.485,0.842,0.731,1.259
	c0.008,0.008,0.017,0.017,0.017,0.025c0.264,0.417,0.527,0.834,0.8,1.25c0.817,1.233,1.7,2.424,2.653,3.555
	c0.629,0.749,1.285,1.471,1.965,2.177c0.008,0.009,0.017,0.017,0.025,0.026c0.332,0.332,0.663,0.663,1.004,0.995
	c0.008,0,0.025,0.017,0.034,0.026c0.357,0.341,0.714,0.672,1.088,0.995c0.366,0.324,0.739,0.646,1.122,0.953
	c0.383,0.315,0.774,0.621,1.165,0.919c0.391,0.298,0.791,0.587,1.19,0.868c0.408,0.281,0.817,0.561,1.233,0.825
	c0.417,0.273,0.834,0.527,1.268,0.783c0.425,0.246,0.851,0.493,1.293,0.731c0.434,0.238,0.876,0.459,1.319,0.68
	c0.451,0.221,0.902,0.434,1.353,0.638c0.91,0.408,1.846,0.774,2.79,1.114c1.683,0.195,3.393,0.307,5.128,0.307h12.323
	c3.266-13.19,10.852-24.578,21.108-32.674c10.257-8.105,23.2-12.902,37.181-12.902c27.971,0,51.749,19.203,58.29,45.576h12.323
	c1.734,0,3.444-0.11,5.128-0.307c0.944-0.34,1.88-0.705,2.79-1.114c0.451-0.204,0.902-0.417,1.353-0.638
	c0.442-0.221,0.885-0.442,1.318-0.68c0.442-0.238,0.868-0.485,1.293-0.731c0.434-0.256,0.851-0.51,1.268-0.783
	c0.417-0.264,0.825-0.544,1.233-0.825c0.4-0.281,0.8-0.57,1.19-0.868c0.391-0.298,0.783-0.604,1.165-0.919
	c0.383-0.307,0.757-0.629,1.122-0.953c0.374-0.324,0.731-0.655,1.088-0.995c0.008-0.009,0.025-0.026,0.034-0.026
	c0.341-0.323,0.672-0.655,1.004-0.995c0.008-0.009,0.017-0.017,0.025-0.026c0.68-0.705,1.336-1.429,1.965-2.177
	c0.953-1.131,1.837-2.322,2.653-3.555c0.273-0.417,0.536-0.834,0.8-1.25c0-0.008,0.009-0.017,0.017-0.025
	c0.246-0.417,0.493-0.834,0.731-1.259c0.212-0.383,0.417-0.766,0.612-1.148s0.391-0.766,0.57-1.156
	c0.093-0.195,0.187-0.391,0.281-0.595c0-0.008,0.008-0.017,0.008-0.025c0.161-0.358,0.315-0.714,0.468-1.071
	c0.127-0.315,0.255-0.629,0.375-0.944c0.085-0.212,0.161-0.417,0.238-0.629c0.017-0.051,0.034-0.093,0.051-0.136
	c0.136-0.374,0.264-0.749,0.392-1.131v-0.026c0.161-0.468,0.306-0.944,0.442-1.429c0.11-0.374,0.204-0.748,0.298-1.122
	c0.068-0.238,0.127-0.485,0.178-0.731c0.161-0.689,0.307-1.386,0.425-2.092c0.042-0.246,0.085-0.485,0.119-0.731
	c0.085-0.519,0.153-1.038,0.212-1.565c0.051-0.434,0.093-0.876,0.127-1.319c0.043-0.519,0.076-1.046,0.093-1.573
	c0.026-0.519,0.034-1.054,0.034-1.582c0-17.502-11.507-32.309-27.359-37.293V191.78c14.5,3.36,28.175,7.671,40.797,12.8
	l0.085,27.963l0.442,1.761C406.657,276.229,408.936,368.606,255.999,368.606z"/>
<g>
	<circle style="fill:#F7E3AA;" cx="256.002" cy="402.425" r="15"/>
	<circle style="fill:#F7E3AA;" cx="256.002" cy="458.487" r="15"/>
</g>
<g>
</g>
<g>
</g>
<g>
</g>
<g>
</g>
<g>
</g>
<g>
</g>
<g>
</g>
<g>
</g>
<g>
</g>
<g>
</g>
<g>
</g>
<g>
</g>
<g>
</g>
<g>
</g>
<g>
</g>
</svg>
